<svg width="614" height="106" viewBox="0 0 614 106" fill="none" xmlns="http://www.w3.org/2000/svg">
<path d="M320 19L291.5 35.5V68.5L320 85.5L348.5 69.5V61L364 52.5V78L320 103.5L276 78V26.5L320 0.5L364 26.5V43L320 68.5V50.5L347.5 34.5L320 19Z" fill="url(#paint0_linear_0_1)"/>
<path d="M38.32 104L36.272 95.936C32.3467 102.336 26.8853 105.536 19.888 105.536C14.1707 105.536 9.47733 103.957 5.808 100.8C2.224 97.5573 0.432 93.0347 0.432 87.232C0.432 83.648 1.456 80.5333 3.504 77.888C5.63733 75.1573 8.53867 73.2373 12.208 72.128C16.9867 70.7627 24.368 69.9947 34.352 69.824C34.352 64.192 34.096 61.2053 33.584 60.864C33.1573 60.5227 31.792 60.352 29.488 60.352C28.0373 60.352 26.032 60.4373 23.472 60.608C19.376 60.7787 13.8293 61.248 6.832 62.016C6.14933 57.408 5.63733 52.4587 5.296 47.168C9.81867 46.2293 14.5547 45.4613 19.504 44.864C24.4533 44.1813 28.8907 43.84 32.816 43.84C39.6427 43.84 44.7627 44.992 48.176 47.296C51.5893 49.5147 53.808 52.4587 54.832 56.128C55.856 59.7973 56.3253 64.448 56.24 70.08L56.112 88.896L56.496 104H38.32ZM27.312 91.2C29.5307 91.2 31.8773 90.7733 34.352 89.92V80.448H33.328C27.0133 80.448 23.5147 80.7893 22.832 81.472C22.4053 81.8987 22.064 82.5387 21.808 83.392C21.6373 84.2453 21.552 85.056 21.552 85.824C21.552 87.872 22.0213 89.28 22.96 90.048C23.8987 90.816 25.3493 91.2 27.312 91.2ZM123.083 48.832C123.851 49.7707 124.406 52.1173 124.747 55.872C125.174 59.6267 125.387 65.344 125.387 73.024V104H103.499V73.28V68.032C103.499 65.3013 103.286 63.5947 102.859 62.912C102.176 62.0587 100.598 61.632 98.123 61.632C96.9283 61.632 96.0323 61.6747 95.435 61.76C93.0457 61.8453 90.571 62.4 88.011 63.424V104H66.123V45.12H83.915L86.347 54.976C92.491 47.552 99.8297 43.84 108.363 43.84C111.435 43.84 114.294 44.2667 116.939 45.12C119.67 45.9733 121.718 47.2107 123.083 48.832ZM146.89 37.824C143.989 37.824 141.471 36.8427 139.338 34.88C137.29 32.9173 136.266 30.5707 136.266 27.84C136.266 25.1093 137.29 22.7627 139.338 20.8C141.471 18.8373 143.989 17.856 146.89 17.856C149.791 17.856 152.266 18.8373 154.314 20.8C156.362 22.7627 157.386 25.1093 157.386 27.84C157.386 30.5707 156.362 32.9173 154.314 34.88C152.266 36.8427 149.791 37.824 146.89 37.824ZM135.882 45.12H157.77V104H135.882V45.12ZM260.655 49.216C262.02 51.264 262.703 59.2 262.703 73.024V104H240.815V75.2V68.288C240.815 65.1307 240.516 63.2533 239.919 62.656C239.236 61.9733 237.786 61.632 235.567 61.632L234.031 61.76C231.386 61.9307 228.868 62.528 226.479 63.552C226.564 65.344 226.607 68.5013 226.607 73.024V104H204.719V75.2V67.52C204.719 64.8747 204.42 63.2533 203.823 62.656C203.14 61.9733 201.69 61.632 199.471 61.632L197.935 61.76C195.546 61.8453 193.071 62.4 190.511 63.424V104H168.623V45.12H186.415L188.719 54.72C191.535 50.9653 194.778 48.2347 198.447 46.528C202.116 44.736 205.828 43.84 209.583 43.84C212.74 43.84 215.727 44.3093 218.543 45.248C221.444 46.1867 223.45 47.5093 224.559 49.216C225.071 49.984 225.498 51.392 225.839 53.44C228.57 50.112 231.684 47.68 235.183 46.144C238.682 44.608 242.18 43.84 245.679 43.84C248.836 43.84 251.823 44.3093 254.639 45.248C257.54 46.1867 259.546 47.5093 260.655 49.216Z" fill="url(#paint1_linear_0_1)"/>
<path d="M428.64 31.04H452.96L433.248 104H399.84L380 31.04H404.448L416.224 88.128H416.864L428.64 31.04ZM459.528 31.04H482.568V104H459.528V31.04ZM494.885 31.04H548.005V46.4H517.925V59.712H543.269V73.536H517.925V88.384H547.877V104H494.885V31.04ZM578.767 50.752C578.767 52.544 579.663 53.952 581.455 54.976C583.332 56 586.234 57.1093 590.159 58.304C594.852 59.84 598.692 61.3333 601.679 62.784C604.751 64.2347 607.396 66.496 609.615 69.568C611.919 72.64 613.071 76.6507 613.071 81.6C613.071 97.472 602.746 105.408 582.095 105.408C578.682 105.408 574.5 105.109 569.551 104.512C564.687 103.915 560.25 103.147 556.239 102.208C556.41 100.416 556.751 97.8133 557.263 94.4C557.86 90.9013 558.415 88.2987 558.927 86.592C561.914 87.0187 566.394 87.5307 572.367 88.128C578.426 88.7253 582.991 89.024 586.063 89.024C587.855 89.024 588.922 88.896 589.263 88.64C589.775 88.2987 590.159 87.744 590.415 86.976C590.756 86.1227 590.927 85.3973 590.927 84.8C590.927 83.0933 590.116 81.8133 588.495 80.96C586.874 80.0213 584.1 78.912 580.175 77.632C575.482 76.1813 571.599 74.688 568.527 73.152C565.455 71.616 562.767 69.2267 560.463 65.984C558.159 62.7413 557.007 58.4747 557.007 53.184C557.007 49.4293 557.86 45.76 559.567 42.176C561.274 38.5067 563.023 36.032 564.815 34.752C566.18 33.8133 568.996 32.9173 573.263 32.064C577.53 31.2107 581.54 30.784 585.295 30.784C594.852 30.784 602.66 31.68 608.719 33.472C608.634 35.1787 608.335 37.5253 607.823 40.512C607.396 43.4987 606.927 46.2293 606.415 48.704L603.471 48.576C592.378 47.808 585.295 47.424 582.223 47.424C580.943 47.424 580.218 47.4667 580.047 47.552C579.706 47.7227 579.407 48.1067 579.151 48.704C578.895 49.3013 578.767 49.984 578.767 50.752Z" fill="url(#paint2_linear_0_1)"/>
<defs>
<linearGradient id="paint0_linear_0_1" x1="320" y1="16" x2="320" y2="114" gradientUnits="userSpaceOnUse">
<stop stop-color="#E428AE"/>
<stop offset="1" stop-color="#790CFA" stop-opacity="0.912"/>
<stop offset="1" stop-color="#C666F3"/>
</linearGradient>
<linearGradient id="paint1_linear_0_1" x1="176" y1="5" x2="176" y2="143" gradientUnits="userSpaceOnUse">
<stop stop-color="#FA85D8"/>
<stop offset="1" stop-color="#6500DC" stop-opacity="0.912"/>
</linearGradient>
<linearGradient id="paint2_linear_0_1" x1="499" y1="-2" x2="499" y2="143" gradientUnits="userSpaceOnUse">
<stop stop-color="#FA85D8"/>
<stop offset="1" stop-color="#6500DC"/>
</linearGradient>
</defs>
</svg>
